<svg xmlns="http://www.w3.org/2000/svg" xmlns:xlink="http://www.w3.org/1999/xlink" version="1.1" x="0px" y="0px" viewBox="0 0 100 125" enable-background="new 0 0 100 100" xml:space="preserve"><path fill="#000000" d="M29.352,93H48.75c1.104,0,2-0.896,2-2s-0.896-2-2-2H29.352C25.28,89,22,85.688,22,81.617V17.853  C22,13.522,25.491,10,29.821,10H58v12.409C58,26.043,60.957,29,64.591,29H77v28.5c0,1.104,0.896,2,2,2s2-0.896,2-2V28.709  c0-1.784-0.647-3.462-1.909-4.724L63.086,7.957C61.824,6.695,60.17,6,58.386,6H29.821C23.285,6,18,11.317,18,17.853v63.764  C18,87.894,23.075,93,29.352,93z M74.496,25h-9.905C63.162,25,62,23.838,62,22.409v-9.905L74.496,25z"/><path fill="#000000" d="M53,78c0,9.374,7.626,17,17,17s17-7.626,17-17s-7.626-17-17-17S53,68.626,53,78z M83,78  c0,7.168-5.832,13-13,13s-13-5.832-13-13s5.832-13,13-13S83,70.832,83,78z"/><path fill="#000000" d="M68,71v5h-5c-1.104,0-2,0.896-2,2s0.896,2,2,2h5v5c0,1.104,0.896,2,2,2s2-0.896,2-2v-5h5  c1.104,0,2-0.896,2-2s-0.896-2-2-2h-5v-5c0-1.104-0.896-2-2-2S68,69.896,68,71z"/><text x="0" y="115" fill="#000000" font-size="5px" font-weight="bold" font-family="'Helvetica Neue', Helvetica, Arial-Unicode, Arial, Sans-serif"></text><text x="0" y="120" fill="#000000" font-size="5px" font-weight="bold" font-family="'Helvetica Neue', Helvetica, Arial-Unicode, Arial, Sans-serif"></text></svg>