<svg xmlns="http://www.w3.org/2000/svg" xmlns:xlink="http://www.w3.org/1999/xlink" version="1.1" id="Layer_1" x="0" y="0" viewBox="0 0 600 600" style="enable-background:new 0 0 600 600" xml:space="preserve"><style>.st3{fill:#d7d4ff}.st4{fill:#fff}.st5{fill:#edebff}.st6{fill:#452b96}.st7{fill:#8f6dff}.st8{fill:#542dae}.st12{fill:#00a5d7}.st13{fill:#1f143f}.st14{fill:#0df3ff}.st15{fill:#ffadaf}.st16{fill:#ff9396}.st17{fill:#ff2e56}.st19{fill:#c5c6ff}.st20{opacity:.3}.st22{fill:#ffa903}.st23{fill:#fcc922}.st25{fill:#262040}.st27{fill:#ab1447}.st28{fill:#0a163c}.st33{fill:#452b99}.st35{opacity:.5}.st39{opacity:.1}</style><g id="Social_Media_Chating"><path d="M210.384 486.275c0 5.93-39.306 10.74-87.79 10.74-48.49 0-87.796-4.81-87.796-10.74 0-5.93 39.306-10.74 87.795-10.74 48.485 0 87.79 4.81 87.79 10.74z" style="fill:#f7f5ff"/><path class="st5" d="M113.7 235.746c-8.31-1.35-17.34-4.49-21.12-12.05-4.38-8.79.71-19.81 8.39-25.97 7.64-6.21 17.38-9.11 26.21-13.41 13.331-6.509 25.56-16.85 34.25-29.91 3.479-5.235 5.94-10.845 11.5-14.56 6.67-4.728 14.192-8.583 22.39-8.15 13.57.71 24.23 13.72 25.78 27.2 4.113 36.845-47.716 86.467-107.4 76.85zM530.59 258.446c-3.86 2.19-8.64 1.63-12.97.76-31.11-6.25-59.03-26.85-74.23-54.7-3.5-6.4-6.4-13.68-4.93-20.8 1.2-5.81 5.13-10.66 9.67-14.44 4.09-3.46 10.34-8.15 15.87-8.83 5.33-.68 10.3 3.98 14.56 6.68 4.22 2.71 8.4 5.49 12.48 8.4.8.56 1.58 1.13 2.37 1.71 3.3 2.41 6.53 4.93 9.65 7.57 2.6 2.19 5.13 4.48 7.56 6.87 13.272 12.988 23.86 29.676 26.17 48.17.88 6.92-.16 15.23-6.2 18.61zM429.884 179.124c-1.054-16.893-3.017-33.424-11.624-47.402-10.62-17.255-29.859-26.77-49.83-28.455-.982 18.215-.197 34.602 7.48 48.85 6.633 12.315 18.628 21.924 32.101 25.705 7.036 1.974 14.568 2.387 21.873 1.302z"/><path class="st5" d="M545.55 393.166c-5.01 6.65-11 12.54-17.62 17.23-.19.14-.38.27-.57.4-4.3 3-8.79 5.6-13.43 7.86a99.53 99.53 0 0 1-5.05 2.31c-14.64 6.27-30.57 9.48-46.67 11.27H108.97c10.081-10.942 17.067-26.68 12.46-40.57-3.49-10.55-12.6-17.55-21.92-23.53l-2.1-1.33c-7.67-4.89-15.61-9.94-20.02-17.41-4.73-8.02-5.01-18.12-5.28-27.89-.05-1.9-.1-3.79-.19-5.67-.3-6.73-1.27-12.61-2.92-17.6 23.81-23.807 61.951-18.501 92.85-28.89 26.22-8.8 47.5-28.84 65.03-50.71 17.59-21.93 32.27-46.19 50.48-67.51 18.22-21.36 40.94-40.06 67.82-46.26a75.51 75.51 0 0 1 17.05-1.88c-1.02 19.16-.17 36.52 8.21 52.08 7.54 13.96 20.62 24.44 35.9 28.73a58.865 58.865 0 0 0 15.8 2.17c2.72 0 5.43-.19 8.1-.56 1.09 19.9 1.88 39.93 11.68 56.58 12.49 21.24 36.52 31.57 58.72 41.24 22.23 9.67 45.94 21.72 55.96 44.36 9.6 21.562 3.145 46.726-11.05 65.58z"/><path class="st4" d="M518.55 357.156c-18.64 4.19-30.4 22.76-26.21 41.4 2.21 9.84 8.43 17.76 16.54 22.41 1.7-.72 3.38-1.49 5.05-2.31-8.48-3.75-15.15-11.33-17.34-21.05-3.66-16.3 6.62-32.54 22.92-36.2 14.51-3.26 28.97 4.54 34.55 17.78a86.14 86.14 0 0 0 2.28-5.23c-7.31-12.98-22.53-20.23-37.79-16.8z"/><path class="st4" d="M545.55 393.166c-5.01 6.65-11 12.54-17.62 17.23-9.63.91-18.65-5.47-20.83-15.15-2.36-10.52 4.25-20.97 14.77-23.33 13.105-2.952 25.195 7.934 23.68 21.25z"/><path class="st5" d="M61.459 390.35c9.94 16.86 24.57 29.786 41.39 39.333 9.341-9.413 16.774-23.79 12.708-36.069-2.893-8.73-11.035-14.898-19.393-20.26-9.205-5.858-18.607-11.478-24.115-20.809-5.538-9.392-5.837-20.313-6.137-30.872a492.93 492.93 0 0 0-.176-5.569c-.196-4.597-.733-8.72-1.611-12.357-18.081 23.33-18.112 60.297-2.666 86.602z"/><path class="st4" d="M532.96 224.596c-17.53 14.47-44.633 5.424-49.69-17.09-2.6-11.56 1.69-23.09 10.14-30.28-.79-.58-1.57-1.15-2.37-1.71-8.88 7.88-13.33 20.23-10.54 32.62 5.434 24.2 34.217 34.206 53.46 19.3-.31-.95-.65-1.9-1-2.84z"/><path class="st4" d="M527.61 213.326c-10.08 11.425-29.32 6.836-32.75-8.42-1.79-7.98 1.72-15.91 8.2-20.11 2.6 2.19 5.13 4.48 7.56 6.87 6.55 6.41 12.44 13.71 16.99 21.66z"/><path class="st5" d="M113.7 235.746c-8.31-1.35-17.34-4.49-21.12-12.05-4.38-8.79.71-19.81 8.39-25.97 7.64-6.21 17.38-9.11 26.21-13.41 13.331-6.509 25.56-16.85 34.25-29.91 3.479-5.235 5.94-10.845 11.5-14.56 6.67-4.728 14.192-8.583 22.39-8.15 13.57.71 24.23 13.72 25.78 27.2 4.113 36.845-47.716 86.467-107.4 76.85zM530.59 258.446c-3.86 2.19-8.64 1.63-12.97.76-31.11-6.25-59.03-26.85-74.23-54.7-3.5-6.4-6.4-13.68-4.93-20.8 1.2-5.81 5.13-10.66 9.67-14.44 4.09-3.46 10.34-8.15 15.87-8.83 5.33-.68 10.3 3.98 14.56 6.68 4.22 2.71 8.4 5.49 12.48 8.4.8.56 1.58 1.13 2.37 1.71 3.3 2.41 6.53 4.93 9.65 7.57 2.6 2.19 5.13 4.48 7.56 6.87 13.272 12.988 23.86 29.676 26.17 48.17.88 6.92-.16 15.23-6.2 18.61zM429.884 179.124c-1.054-16.893-3.017-33.424-11.624-47.402-10.62-17.255-29.859-26.77-49.83-28.455-.982 18.215-.197 34.602 7.48 48.85 6.633 12.315 18.628 21.924 32.101 25.705 7.036 1.974 14.568 2.387 21.873 1.302z"/><path class="st5" d="M545.55 393.166c-5.01 6.65-11 12.54-17.62 17.23-.19.14-.38.27-.57.4-4.3 3-8.79 5.6-13.43 7.86a99.53 99.53 0 0 1-5.05 2.31c-14.64 6.27-30.57 9.48-46.67 11.27H108.97c10.081-10.942 17.067-26.68 12.46-40.57-3.49-10.55-12.6-17.55-21.92-23.53l-2.1-1.33c-7.67-4.89-15.61-9.94-20.02-17.41-4.73-8.02-5.01-18.12-5.28-27.89-.05-1.9-.1-3.79-.19-5.67-.3-6.73-1.27-12.61-2.92-17.6 23.81-23.807 61.951-18.501 92.85-28.89 26.22-8.8 47.5-28.84 65.03-50.71 17.59-21.93 32.27-46.19 50.48-67.51 18.22-21.36 40.94-40.06 67.82-46.26a75.51 75.51 0 0 1 17.05-1.88c-1.02 19.16-.17 36.52 8.21 52.08 7.54 13.96 20.62 24.44 35.9 28.73a58.865 58.865 0 0 0 15.8 2.17c2.72 0 5.43-.19 8.1-.56 1.09 19.9 1.88 39.93 11.68 56.58 12.49 21.24 36.52 31.57 58.72 41.24 22.23 9.67 45.94 21.72 55.96 44.36 9.6 21.562 3.145 46.726-11.05 65.58z"/><path class="st4" d="M518.55 357.156c-18.64 4.19-30.4 22.76-26.21 41.4 2.21 9.84 8.43 17.76 16.54 22.41 1.7-.72 3.38-1.49 5.05-2.31-8.48-3.75-15.15-11.33-17.34-21.05-3.66-16.3 6.62-32.54 22.92-36.2 14.51-3.26 28.97 4.54 34.55 17.78a86.14 86.14 0 0 0 2.28-5.23c-7.31-12.98-22.53-20.23-37.79-16.8z"/><path class="st4" d="M545.55 393.166c-5.01 6.65-11 12.54-17.62 17.23-9.63.91-18.65-5.47-20.83-15.15-2.36-10.52 4.25-20.97 14.77-23.33 13.105-2.952 25.195 7.934 23.68 21.25z"/><path class="st5" d="M61.459 390.35c9.94 16.86 24.57 29.786 41.39 39.333 9.341-9.413 16.774-23.79 12.708-36.069-2.893-8.73-11.035-14.898-19.393-20.26-9.205-5.858-18.607-11.478-24.115-20.809-5.538-9.392-5.837-20.313-6.137-30.872a492.93 492.93 0 0 0-.176-5.569c-.196-4.597-.733-8.72-1.611-12.357-18.081 23.33-18.112 60.297-2.666 86.602z"/><path class="st4" d="M532.96 224.596c-17.53 14.47-44.633 5.424-49.69-17.09-2.6-11.56 1.69-23.09 10.14-30.28-.79-.58-1.57-1.15-2.37-1.71-8.88 7.88-13.33 20.23-10.54 32.62 5.434 24.2 34.217 34.206 53.46 19.3-.31-.95-.65-1.9-1-2.84z"/><path class="st4" d="M527.61 213.326c-10.08 11.425-29.32 6.836-32.75-8.42-1.79-7.98 1.72-15.91 8.2-20.11 2.6 2.19 5.13 4.48 7.56 6.87 6.55 6.41 12.44 13.71 16.99 21.66z"/><path d="M455.248 309.937a.5.5 0 0 1-.016-1 86.053 86.053 0 0 0 7.925-.634.5.5 0 0 1 .127.992c-2.6.333-5.298.548-8.018.641h-.018zm-7.998-.067h-.024c-2.624-.13-5.317-.366-8.005-.702a.5.5 0 0 1 .123-.992c2.664.332 5.332.566 7.93.694a.5.5 0 0 1-.024 1zm-15.962-1.967a136.579 136.579 0 0 1-7.83-1.77.5.5 0 1 1 .248-.97 135.09 135.09 0 0 0 7.774 1.758.5.5 0 1 1-.192.982zm39.688-1.005c2.6-.61 5.164-1.363 7.617-2.24a.5.5 0 0 1 .336.941 71.751 71.751 0 0 1-7.725 2.272c-.647.15-.87-.823-.228-.973zm-55.236-2.954a198.853 198.853 0 0 1-7.61-2.53.5.5 0 0 1 .333-.943c2.597.92 5.145 1.766 7.572 2.517a.5.5 0 1 1-.295.956zm69.918-1.75a.5.5 0 0 1 .22-.673 61.94 61.94 0 0 0 6.821-4.045.5.5 0 0 1 .564.825 62.83 62.83 0 0 1-6.933 4.111.5.5 0 0 1-.672-.218zm-84.858-3.545a.495.495 0 0 1-.182-.034 355.095 355.095 0 0 1-7.43-2.996.5.5 0 0 1 .383-.924 358.113 358.113 0 0 0 7.41 2.988.5.5 0 0 1-.181.966zm98.097-5.364a.5.5 0 0 1 .037-.706 56.1 56.1 0 0 0 5.504-5.7.5.5 0 1 1 .767.64 57.172 57.172 0 0 1-5.601 5.803.501.501 0 0 1-.707-.037zm-112.881-.752a.5.5 0 0 1-.198-.041 1713.147 1713.147 0 0 1-7.34-3.19.5.5 0 1 1 .401-.917c2.44 1.066 4.884 2.132 7.335 3.189a.5.5 0 0 1-.198.959zm123.19-11.41a.5.5 0 0 1-.172-.687 47.11 47.11 0 0 0 3.495-7.09.5.5 0 0 1 .932.364 48.158 48.158 0 0 1-3.57 7.24.5.5 0 0 1-.686.172zm-26.55-3.503c-2.086 0-4.185-.089-6.237-.262a.5.5 0 1 1 .084-.996c2.61.22 5.283.3 7.938.237a.5.5 0 0 1 .023 1c-.602.014-1.205.021-1.808.021zm9.769-.635a.5.5 0 0 1-.063-.996c2.613-.339 5.242-.819 7.815-1.427a.5.5 0 1 1 .23.974 78.63 78.63 0 0 1-7.917 1.445.49.49 0 0 1-.065.004zm-23.88-.745a.483.483 0 0 1-.099-.01 69.352 69.352 0 0 1-7.793-2.035.501.501 0 0 1 .31-.951c.737.24 1.478.467 2.22.68 1.787.513 3.624.959 5.459 1.326a.5.5 0 0 1-.097.99zm38.954-3.257a.5.5 0 0 1 .309-.636 78.166 78.166 0 0 0 7.366-2.98.5.5 0 0 1 .422.907 79.502 79.502 0 0 1-7.46 3.018.501.501 0 0 1-.637-.309zm-54.09-1.787a.493.493 0 0 1-.226-.055c-2.529-1.287-4.813-2.77-6.788-4.407a.5.5 0 0 1 .638-.77c1.92 1.59 4.141 3.032 6.603 4.287a.5.5 0 0 1-.227.945zm68.786-5.546a74.428 74.428 0 0 0 6.59-4.434.5.5 0 0 1 .602.799 75.454 75.454 0 0 1-6.679 4.493c-.572.338-1.079-.52-.513-.858zm-7.069.698a.5.5 0 0 1-.4-.583c.788-4.222.675-7.692.682-7.862a.5.5 0 0 1 .496-.504c.234-.024.502.22.504.496-.013.328.155 3.491-.699 8.053a.5.5 0 0 1-.583.4zm-73.776-5.398a.5.5 0 0 1-.416-.222c-1.572-2.354-2.702-4.845-3.36-7.403a.5.5 0 0 1 .97-.25c.628 2.45 1.712 4.837 3.222 7.098a.5.5 0 0 1-.416.777zm93.484-4.145a.5.5 0 0 1 .02-.707 69.112 69.112 0 0 0 5.453-5.768.5.5 0 1 1 .765.644 70.031 70.031 0 0 1-5.532 5.851.5.5 0 0 1-.706-.02zm-20.225-6.758a42.593 42.593 0 0 0-2.23-7.574.501.501 0 0 1 .93-.371 43.616 43.616 0 0 1 2.28 7.753.5.5 0 1 1-.98.192zm-76.938-4.277a.5.5 0 0 1-.494-.58c.426-2.61 1.394-5.172 2.88-7.612a.5.5 0 0 1 .853.52c-1.417 2.33-2.341 4.77-2.747 7.253a.5.5 0 0 1-.492.42zm107.498-1.13a.5.5 0 0 1-.154-.69c1.476-2.325 2.713-4.68 3.675-7a.5.5 0 0 1 .923.383c-.984 2.373-2.247 4.779-3.754 7.153a.5.5 0 0 1-.69.153zm-36.419-9.17a35.887 35.887 0 0 0-4.997-6.086.5.5 0 1 1 .697-.716 36.865 36.865 0 0 1 5.136 6.254.5.5 0 1 1-.836.548zm-63.166-3.263a.499.499 0 0 1-.34-.867c1.895-1.751 4.074-3.381 6.479-4.845a.5.5 0 1 1 .52.854c-2.348 1.43-4.474 3.019-6.319 4.725a.501.501 0 0 1-.34.133zm105.714-2.236a.5.5 0 0 1-.413-.574c.434-2.684.477-5.298.128-7.82a.5.5 0 1 1 .99-.137c.357 2.587.327 5.298-.132 8.117a.5.5 0 0 1-.573.414zm-53.791-5.351a33.977 33.977 0 0 0-7.214-3.134c-.628-.192-.348-1.147.291-.958a34.911 34.911 0 0 1 7.427 3.229.5.5 0 1 1-.504.863zm-38.375-.77a.5.5 0 0 1-.19-.964 56.642 56.642 0 0 1 7.665-2.513.5.5 0 0 1 .242.97 55.631 55.631 0 0 0-7.528 2.47.5.5 0 0 1-.189.036zm14.977-4.286a.5.5 0 0 1 .453-.543 45.755 45.755 0 0 1 8.078-.018c.275.024.478.267.454.542s-.294.473-.542.454a44.68 44.68 0 0 0-7.9.018.5.5 0 0 1-.543-.453zm74.627-5.454c-1.094-2.265-2.553-4.464-4.336-6.536a.5.5 0 1 1 .757-.652c1.841 2.138 3.348 4.41 4.479 6.753a.5.5 0 0 1-.9.435zm-10.082-11.936a49.443 49.443 0 0 0-6.641-4.303.5.5 0 1 1 .476-.879 50.438 50.438 0 0 1 6.776 4.39.5.5 0 1 1-.611.792zm-13.687-7.54a.498.498 0 0 1-.175-.032c-2.286-.853-4.763-1.652-7.571-2.444a.5.5 0 0 1 .271-.963c2.836.8 5.338 1.607 7.65 2.47a.5.5 0 0 1-.175.968zm-15.356-4.455a.487.487 0 0 1-.118-.014l-2.747-.658a563.65 563.65 0 0 1-5.033-1.22.5.5 0 0 1 .242-.97c1.671.416 3.348.816 5.024 1.217l2.749.66a.5.5 0 0 1-.117.985zm-15.497-3.975a.505.505 0 0 1-.145-.022 88.093 88.093 0 0 1-6.349-2.174c-.414-.16-.828-.327-1.24-.5a.5.5 0 0 1 .384-.922c.405.17.811.332 1.218.49a86.862 86.862 0 0 0 6.278 2.15.5.5 0 0 1-.146.978zm-14.609-6.385a.501.501 0 0 1-.278-.085c-2.452-1.639-4.484-3.468-6.037-5.437a.5.5 0 0 1 .785-.62c1.49 1.887 3.443 3.645 5.807 5.226a.5.5 0 0 1-.277.916zm-9.345-12.48a.5.5 0 0 1-.488-.398 16.633 16.633 0 0 1-.348-3.394c0-1.561.215-3.162.64-4.757a.5.5 0 0 1 .967.257 17.526 17.526 0 0 0-.607 4.5c0 1.08.11 2.153.327 3.189a.5.5 0 0 1-.49.603zm3.72-15.101a.5.5 0 0 1-.408-.789 27.128 27.128 0 0 1 5.629-5.853.5.5 0 1 1 .61.793 26.512 26.512 0 0 0-5.424 5.638.5.5 0 0 1-.408.211zm12.466-9.677a.5.5 0 0 1-.193-.961c2.332-.977 4.851-1.772 7.7-2.428a.5.5 0 0 1 .225.975c-2.794.643-5.26 1.42-7.539 2.375a.494.494 0 0 1-.193.039zm15.499-3.77a.5.5 0 0 1-.064-.995c2.482-.321 4.975-.568 7.523-.813a.499.499 0 1 1 .096.995c-2.54.244-5.024.49-7.49.81a.602.602 0 0 1-.065.004z" style="fill:#5652e5"/><path class="st6" d="M402.494 128.28v283.8c0 11.11-9.01 20.04-19.9 20.04h-127.45c-8.48 0-15.77-5.28-18.68-12.77-.88-2.25-1.36-4.7-1.36-7.27v-283.8c0-10.96 9.01-19.97 20.04-19.97h127.45c10.89 0 19.9 9.01 19.9 19.97z"/><path class="st7" d="M382.422 114.845h-51.54c-1.998 0-3.593 1.36-4.344 3.21-1.276 3.115-4.364 5.292-7.949 5.292-3.519 0-6.587-2.177-7.864-5.283-.76-1.858-2.355-3.22-4.345-3.22h-51.473c-7.423 0-13.438 6.016-13.438 13.44v283.79c0 7.48 6.1 13.59 13.438 13.59h127.374c7.432 0 13.504-6.082 13.504-13.514V128.283c0-7.404-6.025-13.438-13.363-13.438z"/><path class="st28" d="M103.313 475.233v13.913c0 .85.684 1.535 1.534 1.535h32.898c.867 0 1.568-.718 1.535-1.585-.05-1.251-.184-4.421-.618-4.771-6.973-5.639-13.596-3.954-14.48-6.606-.884-2.653-1.234-5.606-1.234-5.606s-18.468-.266-19.635 3.12zM51.689 475.233v13.913c0 .85.684 1.535 1.534 1.535h32.898c.867 0 1.568-.718 1.534-1.585-.05-1.251-.183-4.421-.617-4.771-6.973-5.639-13.596-3.954-14.48-6.606-.884-2.653-1.234-5.606-1.234-5.606s-18.468-.266-19.635 3.12z"/><path d="M138.417 391.422c-.103 16.68-4.214 79.62-6.057 81.699-3.044 3.423-14.25 3.482-23.278 2.414-6.818-.805-12.392-2.239-12.29-3.336 0 0 4.345-59.24 3.614-75.334-.389-8.658-2.757-38.948-3.438-47.653 0 0-5.428 42.079-7.667 56.05-2.794 17.514-9.086 69.86-10.695 71.221-2.78 2.341-17.996 3.087-27.199.864-3.101-.761-5.53-1.859-6.554-3.336-1.536-2.21 6.189-51.908 7.052-71.265.878-19.883 3.54-74.28 14.777-96.782l65.56 4.506s.396 3.73.98 9.656c1.771 17.864 5.312 55.67 5.195 71.296z" style="fill:#373352"/><path class="st25" d="M67.647 325.917c-5.205 32.505-7.726 43.151-8.604 74.204-.718 25.43-12.537 52.265-7.636 77.226-.41.072.41-.044 0 0-3.101-.761-5.53-1.859-6.554-3.336-1.536-2.21 6.189-51.908 7.052-71.265.878-19.883 3.54-74.28 14.777-96.782l65.56 4.506s.396 3.73.98 9.656c-19.941 11.017-44.477 14.642-65.575 5.79z"/><path class="st25" d="M109.082 475.535c-6.818-.805-12.392-2.239-12.29-3.336 0 0 4.345-59.24 3.614-75.334-.395-8.793-2.853-40.176-3.35-46.526.35-.966.892-1.683 1.682-1.917 4.301-1.302 4.228 11.325 4.448 13.417 5.39 52.777 7.474 65.482 6.028 81.654-.884 10.108-3.684 21.66-.132 32.042z"/><path class="st15" d="m190.37 210.18 5.267 14.714c2.125 4.699 8.819-.09 12.568-7.905 1.52-3.17 1.309-7.005-.922-9.722-2.61-3.18-6.157-3.046-6.157-3.046s3.953-11.261.802-12.45c-3.148-1.179-6.945 11.515-6.945 11.515s-.782-3.547-2.684-4.448c-1.91-.886-1.93 11.342-1.93 11.342z"/><path class="st14" d="M203.352 224.849s-14.76 45.81-34.17 55.82c-.61.31-1.22.59-1.84.83-.49.2-.99.36-1.5.5-1.59.43-3.14.76-4.66 1-21.46 3.47-35.83-9.82-35.83-9.82l.04-50.9c4.48.64 14.569 6.73 19.63 9.64 6.17 3.56 12.87 7.42 19.09 10.28l25.79-32.66c3.58-.81 13.22 12.04 13.45 15.31z"/><path class="st12" d="M163.952 272.059c-.23 3.78-1.19 7.5-2.77 10.94-21.46 3.47-35.83-9.82-35.83-9.82l.04-50.9c4.48.64 14.569 6.73 19.63 9.64a68.474 68.474 0 0 0-.48 22.76c.75 5.05 2.17 10.22 5.59 14.01 3.42 3.78 9.29 5.73 13.82 3.37z"/><path class="st14" d="M132.007 280.458c-.878 2.948-.794 6.68-.324 10.464.91 7.41 3.345 15.042 3.22 17.509-.764 14.98-45.994 18.846-66.127 15.627a48.072 48.072 0 0 1-2.185-.397c-4.244-.868-6.972-2.133-7.275-3.722a.523.523 0 0 1-.021-.135c-2.728-14.394 4.568-72.629 15.22-92.093.23-.428.47-.846.71-1.233 8.039-13.213 63.472-18.69 66.535 6.878.794 6.67-3.398 24-6.586 35.865a489.717 489.717 0 0 1-3.167 11.237z"/><g class="st35"><path class="st12" d="M135.642 273.839c-.78 5.7-1.58 11.52-3.96 16.73-.17.41-.37.8-.56 1.19-1.87 3.69-4.64 6.87-7.94 9.36-1.32 4.02-5 7.27-9.06 8.79-5.09 1.9-10.7 1.66-16.12 1.37-5.43-.29-11.02-.58-16.15 1.2-5.26 1.84-9.59 5.76-12.81 10.3-.21.3-.43.62-.64.93-.77-.13-1.5-.25-2.19-.4-4.24-.87-6.97-2.13-7.27-3.72a.503.503 0 0 1-.02-.13l.28-.52c-2.47-15.22 4.79-72.34 15.31-91.57 6.04-1.13 11.36-6.32 17.52-3.92 6.13 2.39 11.41 7.35 14.4 13.2 2.72 5.36 3.65 11.46 5.89 17.04 2.23 5.59 6.4 11.07 12.33 12.09 1.94.35 3.95.17 5.91.47 1.8.28 3.67 1.08 4.61 2.62.08.13.15.25.22.39.67 1.4.46 3.04.25 4.58z"/></g><path class="st15" d="M156.77 275.071c-3.895 8.855 4.995 1.619 8.725-.689.067-.22 1.005-3.233-.468-4.334-1.521-1.148-8.257 5.023-8.257 5.023z"/><path d="M161.48 292.212h15.12a3.197 3.197 0 0 0 3.083-2.355l6.876-25.212a3.197 3.197 0 0 0-3.084-4.038h-15.12a3.197 3.197 0 0 0-3.084 2.356l-6.876 25.211a3.197 3.197 0 0 0 3.084 4.038z" style="fill:#2c2c76"/><path class="st15" d="M155.995 286.193s16.925 3.457 18.672-8.254c1.719-11.499-13.139-3.36-13.536-3.073l-4.387.346-.749 10.981z"/><path class="st14" d="M77.267 224.008c-15.545 12.428-13.517 68.527 14.142 79.382 19.244 7.552 63.668-12.49 63.668-12.49 1.152.093 2.624-18.038 1.472-18.131l-46.85-1.121s-10.435-65.227-32.432-47.64z"/><path class="st15" d="M106.21 207.925c.1.05 6.335 6.717 12.68 4.79 5.56-1.694 3.074-23.08-.514-22.688-3.594.401-11.988 10.616-11.988 10.616s-3.632-1.84-4.426.887c-.971 3.37 4.248 6.395 4.248 6.395z"/><path class="st15" d="M101.528 215.972s3.48 6.775 8.142 7.04c4.686.263 4.697-4.858 3.675-7.029-.502-1.087-.247-3.436-.253-3.537-3.915-1.378-6.878-4.525-6.878-4.525-.746 3.43-4.62 7.95-4.686 8.05z"/><path class="st16" d="M106.214 207.921c.103 4.192 6.97 7.557 6.97 7.557-.275-1.183-.092-3.032-.092-3.032-3.915-1.378-6.878-4.525-6.878-4.525z"/><path d="M95.828 200.699c-2.745 5.564 8.506 11.39 8.506 11.39.83-1.344 1.596-2.847 1.876-4.164 0 0-5.22-3.025-4.248-6.395.794-2.727 4.426-.887 4.426-.887s1.102 1.065 2.544.899c1.135 0 3.156-5.617 4.958-6.186.663-.206 6.046.684 7.446-.017 2.428-1.214 5.257-3.333 5.994-6.91 1.177-5.63-6.563-2.847-10.718-6.498-4.155-3.65-3.558 2.577-10.028 1.606-6.461-.97-9.813 6.49-9.813 6.49-7.545 1.419-.943 10.672-.943 10.672z" style="fill:#300b4c"/><circle class="st4" cx="547.184" cy="349.179" r="1.604"/><path class="st19" d="M475.046 378.934c-.809-.424-1.56-1.013-2.006-1.811-1.041-1.863-.158-4.177-.29-6.307-.483-7.829-12.536-9.46-14.12-16.907-.362-1.698.147-3.813 1.765-4.442 1.24-.482 2.907-.022 3.756-1.045.342-.414.442-.97.517-1.502 1.175-8.365-.886-17.18 1.856-25.17.618-1.8 1.614-3.659 3.371-4.39 3.999-1.666 9.676 2.89 8.928 13.935-.327 4.82-1.73 10.618-1.08 12.388.554 1.512 2.431 2.3 2.8 3.867 3.889.094 5.358-6.334 9.247-6.399.474-.008.986.111 1.29.475.483.583.967 3.4-.066 6.076-.696 1.803-1.973 3.426-2.153 5.351-.215 2.277 1.415 3.324 3.612 3.289 1.267-.02 2.53-.343 3.791-.206 2 .217 3.738 1.593 4.82 3.29 2.438 3.825 2.918 12.03 2.71 16.558-.149 3.246-.245 8.002-1.874 10.852-6.975-11.274-20.003-4.296-26.874-7.902z"/><path class="st3" d="M510.588 379.135c2.513-6.747 12.17-9.217 13.593-16.276.308-1.526-.177-3.546-1.711-3.81-.656-.113-1.318.146-1.984.16-2.09.041-3.5-2.41-3.217-4.482.54-3.947 4.883-6.151 11.749-18.688 1.058-1.932 1.913-4.67.2-6.055-1.43-1.157-5.733-.898-7.649-3.774-1.303-1.957-.856-4.539-.486-6.86.703-4.418.937-8.899.999-13.371.035-2.56-.092-5.397-1.875-7.235-2.397-2.471-6.799-1.767-9.274.626-2.476 2.393-3.459 5.913-4.121 9.291-2.708 13.804-.464 19.208-2.936 24.354-.823 1.716-1.443 1.347-5.858 1.169-.913-.037-1.87-.065-2.688.34-1.694.838-2.058 3.115-1.78 4.984.873 5.885 5.786 10.698 6.132 16.637.19 3.247-1.989 2.996-3.676 4.212-1.321.953-1.86 2.724-1.7 4.345.457 4.628 6.883 11.143 10.775 16.55.846 1.174 1.937 4.282 3.795 3.513 1.684-.697 1.16-4.148 1.712-5.63z"/><path class="st19" d="M530.883 377.666c2.914.076 3.656.323 6.548-1.225 1.503-.805 2.99-1.758 3.95-3.166.961-1.408 1.282-3.369.384-4.818-.944-1.525-2.995-2.2-3.678-3.858-.563-1.368.049-3.002 1.12-4.022 3.1-2.953 10.77-2.296 14.553-6.88.591-.716 1.07-1.593 1.031-2.522-.088-2.064-2.637-3.889-1.705-5.732 1.085-2.143 4.747-.72 8.46-2.372 1.582-.705 2.981-1.995 3.44-3.664.22-.795.218-1.632.215-2.457-.004-1.026-.237-1.281-1.017-1.542-10.352-3.452-21.265-.18-24.927 3.51-1.802 1.816-2.723 4.32-4.27 6.357-1.547 2.038-4.285 3.652-6.607 2.577-1.74-.806-2.578-2.806-4.084-3.994a5.273 5.273 0 0 0-3.887-1.077c-.541.069-.69.25-.793.775-1.263 6.476 2.115 9.625.528 12.881-1.183 2.428-4.468 2.89-6.408 4.768-1.766 1.71-2.188 4.36-2.312 6.815-.304 6.014.064 13.292 1.93 19.045 1.171-.273 2.427-2.728 3.342-3.637 3.777-3.75 9.024-5.897 14.187-5.762zM504.54 401.124c-2.7-12.237-3.776-27.4-12.365-33.823-1.301-.973-2.733-1.683-4.116-2.37-8.837-4.382-9.668-4.32-13.122-9.297-2.448-3.53-4.806-7.39-5.475-11.696-1.082-6.942 2.59-14.82 2.086-22.282l-2.22.15c.495 7.321-3.258 14.804-2.065 22.474.74 4.75 3.246 8.873 5.846 12.621 2.943 4.242 4.37 5.267 8.603 7.366 6.457 3.203 7.717 3.759 9.13 4.816 7.82 5.847 8.88 20.672 11.415 32.04h2.283z"/><path class="st19" d="M544.191 341.506c-4.978 4.297-8.687 9.817-12.326 15.208-6.3 9.331-5.825 4.907-12.15 14.66-2.035 3.14-4.36 6.816-6.172 10.7-1.841 3.945-3.167 14.777-3.955 19.05h2.268c.76-3.945 2-14.46 3.702-18.109 1.875-4.018 7.145-12.817 10.116-15.926 2.937-3.073 3.644-2.63 8.035-9.13 3.54-5.244 7.172-10.657 11.937-14.77 5.219-4.506 11.356-6.77 16.82-6.213l.224-2.213c-6.076-.618-12.818 1.838-18.499 6.743z"/><path class="st3" d="M509.28 401.124c-3.198-17.018-3.04-40.819 3.917-57.222 3.607-8.518 2.881-7.954 2.761-41.464l-2.225.008c.132 36.625.768 32.336-3.222 42.11-5.818 14.22-6.987 37.67-3.496 56.568h2.266z"/><g class="st20"><circle class="st4" cx="534.01" cy="373.697" r="1.604"/></g><g class="st20"><circle class="st4" cx="524.993" cy="351.486" r="1.604"/></g><g class="st20"><circle class="st4" cx="521.307" cy="335.778" r="1.604"/></g><g class="st20"><circle class="st4" cx="513.433" cy="358.03" r="1.604"/></g><g class="st20"><circle class="st4" cx="499.737" cy="340.163" r="1.604"/></g><g class="st20"><circle class="st4" cx="508.958" cy="318.651" r="1.604"/></g><g class="st20"><circle class="st4" cx="464.758" cy="354.029" r="1.604"/></g><g class="st20"><circle class="st4" cx="486.321" cy="357.467" r="1.604"/></g><g class="st20"><circle class="st4" cx="487.925" cy="375.301" r="1.604"/></g><path class="st7" d="m527.006 402.631-.58 2.13-6.28 23.21a3.024 3.024 0 0 1-2.98 2.48h-18.51c-1.46 0-2.71-1.04-2.98-2.48l-.89-4.84-1.47-5.07-4.49-15.43a3.027 3.027 0 0 1 2.98-3.57h32.22c.24 0 .48.03.71.08 1.53.37 2.57 1.88 2.27 3.49z"/><path d="m526.426 404.761-6.28 23.21a3.024 3.024 0 0 1-2.98 2.48h-18.51c-1.46 0-2.71-1.04-2.98-2.48l-.89-4.84-1.47-5.07c.36.04.72.07 1.08.1 7.49.63 15.38.42 22.01-3.12 4.29-2.28 7.83-5.94 10.02-10.28z" style="fill:#7449fe"/><g class="st35"><circle class="st33" cx="276.253" cy="150.014" r="20.744"/></g><circle class="st6" cx="274.519" cy="148.28" r="20.744"/><path class="st4" d="M293.716 148.278c0 2.952-.667 5.746-1.856 8.244-3.084 6.475-9.691 10.956-17.343 10.956-6.879 0-12.913-3.618-16.299-9.056 0-.006-.006-.006-.006-.012a19.046 19.046 0 0 1-2.895-10.132c0-10.603 8.596-19.2 19.2-19.2 10.603 0 19.2 8.597 19.2 19.2z"/><path class="st13" d="M284.304 151.078c-.958 1.916-2.991 3.183-5.116 3.447-2.125.265-4.306-.401-6.082-1.597l4.601-16.373c.793-.898 1.918-1.554 3.116-1.566 1.197-.01 2.425.726 2.783 1.869.343 1.094-.131 2.274-.72 3.26-.301.506-.638.997-.855 1.544-.217.548-.307 1.174-.1 1.725.274.733.993 1.181 1.545 1.734 1.516 1.513 1.787 4.042.828 5.957z"/><path class="st23" d="M291.86 156.522c-3.084 6.475-9.691 10.956-17.343 10.956-6.879 0-12.913-3.618-16.299-9.056 0-.006-.006-.006-.006-.012a18.277 18.277 0 0 1-.755-1.586c-.126-.302-.246-.61-.353-.919 1.378-1.22 3.077-2.24 4.984-3.058 2.517-1.076 5.368-1.806 8.32-2.177h.006a44.468 44.468 0 0 1 2.265-.214 33.24 33.24 0 0 1 1.133-.057h.006a37.861 37.861 0 0 1 2.807.013h.012c2.593.107 5.11.497 7.382 1.164 2.02.598 3.838 1.403 5.342 2.441.642.447 1.221.925 1.744 1.454v.006h.012c.013.02.025.026.038.05.019.007.031.026.05.045.233.258.453.579.655.95z"/><path class="st15" d="M276.622 150.555c-.52 1.218-5.793 1.834-6.215.332-.055-.187.519-3.64.955-5.973.145-.782.277-1.447.367-1.834.055-.242.097-.38.117-.38.056.02.748.22 1.523.442l2.312.658.498 2.408c0 .118.18 1.51.312 2.686.096.837.166 1.564.131 1.66z"/><path class="st16" d="M276.49 148.894c-1.398-.485-2.761-1.295-3.564-2.264-.014-.013-.076-.062-.173-.159-.304-.283-.962-.906-1.391-1.557-.395-.581-.595-1.183-.187-1.564.187-.173.374-.256.554-.27.817-.09 1.543 1.086 1.543 1.086l.097-1.024 2.312.658.498 2.408c0 .118.18 1.51.312 2.686z"/><path class="st15" d="M280.398 139.214c.38 2.14.503 7.2-1.253 8.337-1.613 1.045-5.257-.182-7.052-2.352-.016-.015-.077-.064-.177-.16-.586-.54-2.435-2.315-1.574-3.12 1-.953 2.098.813 2.098.813l.364-3.857s6.752-1.121 7.318-.552c.103.105.197.423.276.891z"/><path class="st13" d="M280.555 138.267c-.97 2.037-2.848 3.625-5.022 4.237-.998.281-2.122.406-2.846 1.15-.44.451-.663 1.08-.755 1.704-.236 1.591.288 3.183.666 4.747.377 1.566.59 3.305-.197 4.71-.632 1.128-1.855 1.864-3.135 2.057-1.28.194-2.602-.11-3.759-.692-2.367-1.191-4.1-3.626-4.307-6.267-.209-2.641 1.183-5.38 3.507-6.65 1.463-.8 3.243-1.054 4.472-2.18 1.412-1.297 1.727-3.403 2.859-4.948.85-1.16 2.184-1.968 3.613-2.113 1.43-.145 2.929.401 3.877 1.48a4.2 4.2 0 0 1 1.027 2.765z"/><path d="M395.638 133.5h-88.31a4.607 4.607 0 0 0-4.605 4.604v25.339a4.607 4.607 0 0 0 4.605 4.604h88.31v-34.548z" class="st39"/><path class="st8" d="M439.447 134.852v25.339a4.607 4.607 0 0 1-4.605 4.605H311.453a4.602 4.602 0 0 1-4.604-4.605v-25.339a4.602 4.602 0 0 1 4.604-4.604h123.389a4.608 4.608 0 0 1 4.605 4.604z"/><path class="st7" d="M428.134 144.027H316.369a2.765 2.765 0 0 1 0-5.53h111.765a2.765 2.765 0 1 1 0 5.53zM400.484 150.516h-84.115a2.765 2.765 0 1 0 0 5.53h84.115a2.765 2.765 0 0 0 0-5.53z"/><path d="M240.862 218.97h88.31a4.607 4.607 0 0 0 4.605-4.604v-25.339a4.607 4.607 0 0 0-4.605-4.604h-88.31v34.548z" class="st39"/><path class="st8" d="M197.053 217.618v-25.339a4.608 4.608 0 0 1 4.605-4.605h123.388a4.602 4.602 0 0 1 4.605 4.605v25.339a4.602 4.602 0 0 1-4.605 4.604H201.658a4.608 4.608 0 0 1-4.605-4.604z"/><g class="st35"><circle class="st33" cx="276.253" cy="264.236" r="20.744"/></g><circle class="st6" cx="274.519" cy="262.502" r="20.744"/><path class="st4" d="M293.716 262.5c0 2.951-.667 5.745-1.856 8.244-6.518 13.687-25.615 14.79-33.642 1.9 0-.006-.006-.006-.006-.012a19.046 19.046 0 0 1-2.895-10.132c0-10.603 8.596-19.2 19.2-19.2 10.603 0 19.2 8.597 19.2 19.2z"/><path class="st13" d="M284.304 265.3c-.958 1.915-2.991 3.183-5.116 3.447-2.125.265-4.306-.401-6.082-1.597l4.601-16.374c2.162-2.448 5.257-1.747 5.9.304.585 1.872-1.08 3.552-1.576 4.804-.755 1.904.549 2.562 1.445 3.459 1.516 1.513 1.787 4.042.828 5.957z"/><path d="M291.86 270.744c-6.518 13.687-25.615 14.79-33.642 1.9 0-.006-.006-.006-.006-.012a18.273 18.273 0 0 1-.755-1.586c-.126-.302-.246-.61-.353-.919 1.378-1.22 3.077-2.24 4.984-3.058 2.517-1.076 5.368-1.806 8.32-2.178h.006a44.45 44.45 0 0 1 2.265-.214 33.24 33.24 0 0 1 1.133-.056h.006a37.87 37.87 0 0 1 2.807.012h.012c2.593.107 5.11.498 7.382 1.165 2.02.597 3.838 1.403 5.342 2.441.642.447 1.221.925 1.744 1.454v.006h.012c.013.02.025.025.038.05.019.007.031.026.05.044.233.258.453.58.655.95z" style="fill:#00f2fe"/><path class="st15" d="M276.622 264.776c-.52 1.218-5.793 1.834-6.215.333-.055-.187.519-3.641.955-5.973.145-.782.277-1.447.367-1.834.055-.243.097-.38.117-.38.056.02.748.22 1.523.442l2.312.657.498 2.409c0 .118.18 1.509.312 2.685.096.838.166 1.565.131 1.661z"/><path class="st16" d="M276.49 263.115c-1.398-.484-2.761-1.294-3.564-2.263-.014-.014-.076-.062-.173-.159-.304-.284-.962-.907-1.391-1.557-.395-.582-.595-1.184-.187-1.564.187-.173.374-.257.554-.27.817-.09 1.543 1.086 1.543 1.086l.097-1.024 2.312.657.498 2.409c0 .118.18 1.509.312 2.685z"/><path class="st15" d="M279.145 261.773c-1.613 1.045-5.257-.183-7.052-2.352-.016-.015-.077-.064-.177-.16-.586-.541-2.435-2.315-1.574-3.12 1-.953 2.098.813 2.098.813l.364-3.857s6.752-1.122 7.318-.553c.534.544 1.154 7.848-.977 9.229z"/><path class="st13" d="M280.555 252.488c-.97 2.037-2.848 3.626-5.022 4.238-.998.28-2.122.406-2.846 1.149-.44.452-.663 1.08-.755 1.705-.236 1.591.288 3.183.666 4.747.377 1.566.59 3.305-.197 4.709-.632 1.13-1.855 1.865-3.135 2.058-1.28.194-2.602-.11-3.759-.692-2.367-1.191-4.1-3.626-4.307-6.267-.209-2.642 1.183-5.38 3.507-6.65 1.463-.8 3.243-1.054 4.472-2.18 1.412-1.297 1.727-3.404 2.859-4.949 2.825-3.856 8.538-2.079 8.517 2.132z"/><path d="M395.638 247.721h-88.31a4.607 4.607 0 0 0-4.605 4.605v25.338a4.607 4.607 0 0 0 4.605 4.605h88.31V247.72z" class="st39"/><path class="st8" d="M439.447 249.074v25.339a4.607 4.607 0 0 1-4.605 4.604H311.453a4.602 4.602 0 0 1-4.604-4.604v-25.339a4.602 4.602 0 0 1 4.604-4.605h123.389a4.608 4.608 0 0 1 4.605 4.605z"/><path class="st7" d="M360.624 252.718H316.55c-1.511 0-2.876 1.131-2.943 2.64a2.765 2.765 0 0 0 2.762 2.89h44.255a2.765 2.765 0 1 0 0-5.53zM394.642 265.539a2.766 2.766 0 0 1-1.95 4.72h-76.32c-.76 0-1.46-.31-1.96-.81s-.81-1.19-.81-1.95a2.77 2.77 0 0 1 2.77-2.77h76.32c.76 0 1.45.31 1.95.81zM430.222 267.499c0 1.52-1.24 2.76-2.77 2.76h-24.28c-1.53 0-2.77-1.24-2.77-2.76a2.77 2.77 0 0 1 2.77-2.77h24.28c.76 0 1.46.31 1.96.81s.81 1.2.81 1.96z"/><g class="st35"><circle class="st33" cx="276.253" cy="378.458" r="20.744"/></g><circle class="st6" cx="274.519" cy="376.724" r="20.744"/><path class="st4" d="M293.716 376.722c0 2.951-.667 5.745-1.856 8.243-3.084 6.476-9.691 10.956-17.343 10.956-6.879 0-12.913-3.618-16.299-9.055 0-.006-.006-.006-.006-.013a19.046 19.046 0 0 1-2.895-10.131c0-10.604 8.596-19.2 19.2-19.2 10.603 0 19.2 8.596 19.2 19.2z"/><path class="st13" d="M284.304 379.522c-.958 1.915-2.991 3.183-5.116 3.446-2.125.265-4.306-.4-6.082-1.596l4.601-16.374c.793-.897 1.918-1.554 3.116-1.566 1.197-.01 2.425.726 2.783 1.87.343 1.094-.131 2.274-.72 3.26-.301.506-.638.996-.855 1.544-.217.548-.307 1.173-.1 1.724.274.733.993 1.182 1.545 1.734 1.516 1.514 1.787 4.042.828 5.958z"/><path class="st23" d="M291.86 384.965c-3.084 6.476-9.691 10.956-17.343 10.956-6.879 0-12.913-3.618-16.299-9.055 0-.006-.006-.006-.006-.013a18.273 18.273 0 0 1-.755-1.585c-.126-.303-.246-.61-.353-.92 1.378-1.22 3.077-2.24 4.984-3.057 2.517-1.077 5.368-1.807 8.32-2.178h.006a44.45 44.45 0 0 1 2.265-.214 33.24 33.24 0 0 1 1.133-.057h.006a37.87 37.87 0 0 1 2.807.013h.012c2.593.107 5.11.497 7.382 1.164 2.02.598 3.838 1.404 5.342 2.442.642.447 1.221.925 1.744 1.454v.006h.012c.013.019.025.025.038.05.019.007.031.025.05.044.233.258.453.58.655.95z"/><path class="st15" d="M276.622 378.998c-.52 1.218-5.793 1.834-6.215.332-.055-.187.519-3.64.955-5.973.145-.782.277-1.446.367-1.834.055-.242.097-.38.117-.38.056.02.748.221 1.523.443l2.312.657.498 2.409c0 .117.18 1.509.312 2.685.096.837.166 1.564.131 1.661z"/><path class="st16" d="M276.49 377.337c-1.398-.484-2.761-1.294-3.564-2.263-.014-.014-.076-.062-.173-.16-.304-.283-.962-.906-1.391-1.557-.395-.58-.595-1.183-.187-1.564.187-.173.374-.256.554-.27.817-.09 1.543 1.087 1.543 1.087l.097-1.024 2.312.657.498 2.409c0 .117.18 1.509.312 2.685z"/><path class="st15" d="M280.398 367.658c.38 2.14.503 7.199-1.253 8.336-1.613 1.046-5.257-.182-7.052-2.352-.016-.014-.077-.063-.177-.16-.586-.54-2.435-2.314-1.574-3.12 1-.953 2.098.814 2.098.814l.364-3.857s6.752-1.122 7.318-.553c.103.106.197.423.276.892z"/><path class="st13" d="M280.555 366.71c-.97 2.037-2.848 3.625-5.022 4.238-.998.28-2.122.405-2.846 1.149-.44.452-.663 1.08-.755 1.704-.236 1.592.288 3.183.666 4.748.377 1.566.59 3.305-.197 4.709-.632 1.129-1.855 1.864-3.135 2.058-1.28.194-2.602-.11-3.759-.693-2.367-1.19-4.1-3.625-4.307-6.267-.209-2.64 1.183-5.38 3.507-6.65 1.463-.8 3.243-1.053 4.472-2.18 1.412-1.296 1.727-3.403 2.859-4.948.85-1.16 2.184-1.968 3.613-2.113 1.43-.145 2.929.402 3.877 1.48a4.2 4.2 0 0 1 1.027 2.765z"/><path d="M395.638 361.943h-88.31a4.607 4.607 0 0 0-4.605 4.604v25.339a4.607 4.607 0 0 0 4.605 4.605h88.31v-34.548z" class="st39"/><path class="st8" d="M439.447 363.296v25.338a4.608 4.608 0 0 1-4.605 4.605H311.453a4.602 4.602 0 0 1-4.604-4.605v-25.338a4.602 4.602 0 0 1 4.604-4.605h123.389a4.608 4.608 0 0 1 4.605 4.605z"/><path class="st7" d="M315.89 371.659c-.5-.5-.81-1.19-.81-1.95 0-1.53 1.23-2.77 2.76-2.77h62.05c.77 0 1.45.31 1.95.81s.81 1.19.81 1.96a2.76 2.76 0 0 1-2.76 2.76h-62.05c-.76 0-1.46-.31-1.95-.81zM353.03 379.769c.5.5.81 1.19.81 1.96 0 1.52-1.24 2.76-2.77 2.76h-33.23c-.76 0-1.46-.31-1.95-.81-.5-.5-.81-1.19-.81-1.95 0-1.53 1.23-2.77 2.76-2.77h33.23c.77 0 1.46.31 1.96.81zM394.96 379.769c.5.5.81 1.19.81 1.96 0 1.52-1.24 2.76-2.77 2.76h-31.5c-1.53 0-2.77-1.24-2.77-2.76a2.77 2.77 0 0 1 2.77-2.77H393c.76 0 1.46.31 1.96.81zM423.86 369.709c0 1.52-1.24 2.76-2.76 2.76h-29.49a2.766 2.766 0 0 1 0-5.53h29.49c.76 0 1.45.31 1.95.81s.81 1.19.81 1.96z"/><path d="M240.862 333.192h88.31a4.607 4.607 0 0 0 4.605-4.604v-25.339a4.607 4.607 0 0 0-4.605-4.604h-88.31v34.547z" class="st39"/><path class="st8" d="M196.995 331.781v-25.338a4.608 4.608 0 0 1 4.605-4.605h123.388a4.602 4.602 0 0 1 4.605 4.605v25.338a4.602 4.602 0 0 1-4.605 4.605H201.6a4.608 4.608 0 0 1-4.605-4.605z"/><g class="st35"><circle class="st33" cx="364.288" cy="320.012" r="20.151"/></g><circle class="st6" cx="365.972" cy="318.328" r="20.151"/><circle class="st4" cx="365.972" cy="318.328" r="18.65"/><defs><circle id="SVGID_13_" cx="365.972" cy="318.328" r="18.65"/></defs><clipPath id="SVGID_2_"><use xlink:href="#SVGID_13_" style="overflow:visible"/></clipPath><g style="clip-path:url(#SVGID_2_)"><path class="st27" d="M354.842 326.6c-4.272 2.73-12.253 15.272-12.253 15.272l-6.471-9.684a11.225 11.225 0 0 1-1.336 1.482c-1.295 1.394-2.829 2.38-4.601 2.956-1.12.588-2.297.962-3.53 1.132 1.384 6.338 3.777 13.961 7.794 18.687 2.385 2.8 5.332 4.577 8.976 4.47 8.615-.259 14.491-9.174 17.642-15.674 1.822-3.765 2.735-6.718 2.735-6.718l-8.956-11.924z"/><path class="st27" d="M361.063 345.241c-3.15 6.5-9.027 15.415-17.642 15.674-3.644.107-6.591-1.67-8.976-4.47a27.64 27.64 0 0 0 8.798-.843c2.01-.532 4.054-1.354 5.353-2.973 1.07-1.334 1.527-3.065 1.654-4.77.122-1.704-.05-3.414-.086-5.124a32.33 32.33 0 0 1 1.086-9.037c.183-.695.4-2.72 1.345-2.801.882-.081.928 1.35 1.151 1.969.7 1.892 1.797 3.612 2.928 5.272 1.543 2.263 3.308 4.556 4.39 7.103z"/><path class="st17" d="M352.47 366.64h35.48c.276-9.123-.864-36.673-6.687-40.96a7.19 7.19 0 0 0-1.137-.654c-5.916-2.78-23.239-3.983-27.293 3.527-1.218 2.258-1.786 8.98-1.832 16.424-.03 4.785.153 9.864.518 14.248.243 2.869.563 5.43.95 7.415z"/><path class="st27" d="M357.608 361.417a78.128 78.128 0 0 0 14.522 2.304c3.283.208 6.637.218 9.747 1.284 1.111.381 2.19.937 3.153 1.635h2.92c.276-9.123-.864-36.673-6.687-40.96a7.19 7.19 0 0 0-1.137-.654c-4.287 2.172-6.971 7.51-7.21 12.401-.106 2.268.163 4.755-1.172 6.586-.908 1.254-2.436 1.949-3.968 2.177-1.532.233-3.095.056-4.638-.127-2.755-.314-5.51-.634-8.265-.954-1.274-.147-2.608-.284-3.872-.132-.03 4.785.153 9.864.518 14.248 1.892 1.02 3.993 1.655 6.089 2.192z"/><circle class="st3" cx="333.735" cy="344.104" r="12.633"/><path class="st23" d="M337.496 345.143a.381.381 0 0 0-.11.336l.69 4.023a.38.38 0 0 1-.55.402l-3.614-1.901a.387.387 0 0 0-.354 0l-3.613 1.9a.38.38 0 0 1-.551-.401l.412-2.4.278-1.623a.373.373 0 0 0-.11-.336l-2.922-2.85a.38.38 0 0 1 .21-.648c4.125-.659 4.168-.474 4.327-.795l1.806-3.66a.379.379 0 0 1 .68 0c1.86 3.635 1.728 3.816 2.094 3.868l4.039.587a.38.38 0 0 1 .212.647l-2.924 2.851z"/><path class="st22" d="M337.496 345.143a.381.381 0 0 0-.11.336l.69 4.023a.38.38 0 0 1-.55.402l-3.614-1.901a.387.387 0 0 0-.354 0l-3.613 1.9a.38.38 0 0 1-.551-.401l.412-2.4a9.618 9.618 0 0 0 1.616-.37c2.687-.869 4.918-2.935 6.141-5.471l2.645.384a.38.38 0 0 1 .212.647l-2.924 2.851z"/><path class="st4" d="M345.206 349.04a18.43 18.43 0 0 1-4.226 5.495c-.975-.706-1.796-1.863-2.167-3.72-.994-4.993 5.713-2.08 6.393-1.775z"/><path class="st15" d="m347.452 349.098-.885 6.247s-.31.085-.804.155c-1.11.15-3.16.21-4.784-.964-.975-.705-1.794-1.865-2.164-3.72-.995-4.992 5.713-2.083 6.393-1.778.025.015.04.025.05.025-.005-.01-.015-.036-.03-.066.29-.584.55-1.179.78-1.794.37.43.744.92 1.014 1.295.26.35.43.6.43.6z"/><path class="st16" d="m347.452 349.098-.885 6.247s-.31.085-.804.155a8.404 8.404 0 0 1 .31-5.298 8.25 8.25 0 0 1 .949-1.704c.26.35.43.6.43.6z"/><path class="st17" d="M379.256 324.66c4.156 1.36 8.45 7.039 9.925 15.016 1.418 7.672 1.63 19.195-3.278 22.186-9.068 5.528-39.423-6.084-39.423-6.084-.493-.07.78-7.144 1.274-7.074l29.693-1.866s-6.62-23.316 1.809-22.179z"/><path class="st15" d="M368.529 319.396s-1.312 1.39-3.04 1.996c-.797.277-1.68.388-2.563.12-1.638-.499-1.695-4.876-1.08-7.677.309-1.399.78-2.405 1.307-2.348 1.588.178 5.297 4.691 5.297 4.691s1.605-.813 1.956.392c.429 1.49-1.877 2.826-1.877 2.826z"/><path class="st15" d="M370.597 322.95s-1.537 2.995-3.597 3.111c-2.07.117-2.076-2.146-1.624-3.105a.958.958 0 0 0 .071-.223c.122-.523.04-1.34.04-1.34 1.731-.609 3.04-1.999 3.04-1.999.127.584.462 1.248.832 1.842a15.176 15.176 0 0 0 1.238 1.715z"/><path class="st16" d="M368.527 319.394c-.046 1.852-3.08 3.339-3.08 3.339.122-.523.04-1.34.04-1.34 2.127-.244 3.15-1.897 3.04-1.999z"/><path class="st28" d="M373.282 317.308c-.333 2.068-3.924 3.928-3.924 3.928-.367-.594-.706-1.259-.83-1.84 0 0 2.307-1.337 1.878-2.826-.351-1.205-1.956-.392-1.956-.392s-.487.47-1.124.397c-.501 0-1.394-2.481-2.19-2.733-.293-.09-2.672.302-3.29-.007-1.073-.537-2.323-1.473-2.65-3.053-.519-2.488 2.901-1.258 4.737-2.871 1.836-1.613 1.572 1.138 4.43.71 1.666-.251 2.864.766 3.573 1.658.473.595 1.022 1.13 1.663 1.54.97.621.765 1.831.364 2.823-.346.854-.535 1.756-.68 2.666z"/><path class="st28" d="m359.782 309.893 13.407 3.395c-.845-1.239-1.455-2.652-2.475-3.752-.845-.917-1.928-1.568-2.995-2.21-.618-.372-1.25-.747-1.952-.93-.698-.181-1.49-.143-2.084.268-.565.394-.884 1.068-1.458 1.443-.452.299-1.011.379-1.508.589-.5.213-.982.656-.935 1.197z"/><path class="st15" d="M327.242 332.582c.43.462.78 3.196-.672 4.548-1.451 1.352-4.153.81-4.584.348s.398-1.933 1.85-3.285c1.45-1.351 2.976-2.073 3.406-1.61z"/></g><path class="st7" d="M280.15 210.037c.519.527.846 1.254.846 2.053a2.892 2.892 0 0 1-2.898 2.89h-28.243a2.89 2.89 0 0 1-2.044-.846 2.86 2.86 0 0 1-.853-2.044 2.9 2.9 0 0 1 2.897-2.898h28.243c.8 0 1.526.328 2.053.845zM239.854 210.037a2.89 2.89 0 0 1 .845 2.053 2.884 2.884 0 0 1-2.89 2.89h-28.392c-.799 0-1.526-.328-2.053-.846-1.811-1.81-.517-4.942 2.053-4.942h28.393c.8 0 1.517.328 2.044.845zM206.565 200.036a2.901 2.901 0 0 1 2.852-3.434h58.743c.8 0 1.526.327 2.053.845 1.813 1.845.513 4.941-2.053 4.941h-58.606c-1.417 0-2.735-.953-2.989-2.352zM276.3 199.5a2.9 2.9 0 0 1 2.897-2.898h27.861c1.78 0 3.18 1.599 2.852 3.434-.254 1.399-1.571 2.352-2.988 2.352h-27.725a2.897 2.897 0 0 1-2.898-2.888zM320.074 325.117a2.77 2.77 0 0 1-2.77 2.77h-77.69c-.77 0-1.46-.31-1.96-.81s-.81-1.2-.81-1.96c0-1.52 1.24-2.76 2.77-2.76h77.69a2.766 2.766 0 0 1 2.77 2.76zM280.204 313.097c0-1.52 1.24-2.76 2.76-2.76h34.34c.76 0 1.46.31 1.96.81 1.735 1.735.498 4.72-1.96 4.72h-34.34a2.766 2.766 0 0 1-2.76-2.77zM272.674 315.867h-36.43a2.77 2.77 0 0 1-2.77-2.77c0-1.52 1.24-2.76 2.77-2.76h36.43a2.766 2.766 0 0 1 0 5.53zM230.114 323.167c.5.5.81 1.19.81 1.95a2.77 2.77 0 0 1-2.77 2.77h-18.88a2.766 2.766 0 0 1 0-5.53h18.88c.77 0 1.46.31 1.96.81z"/><path class="st22" d="m555.377 134.614-53.453 1.322 2.561 3.928z"/><path class="st23" d="m555.377 134.614-67.248 17.582 11.79-13.26zM555.377 134.614l-42.787-4.64-10.666 5.962z"/><path class="st22" d="m501.98 148.563 4.495 5.955 48.9-19.903z"/></g></svg>